<?xml version="1.0" encoding="utf-8" standalone="no"?>
<svg
   width="512"
   height="512"
   viewBox="0 0 512 512"
   version="1.1"
   id="pitcrew-favicon"
   xmlns="http://www.w3.org/2000/svg"
   xmlns:svg="http://www.w3.org/2000/svg">
  <rect
     style="fill:#1a1a1a"
     id="rect1"
     width="512"
     height="512"
     x="0"
     y="0" />
  <path
     id="path1"
     style="fill:#f2f2f2"
     d="m 338.4644,180.40028 c -43.1142,0 -75.7341,30.5844 -84.0996,74.8731 -4.1828,22.1443 -1.1974,41.253 8.75,54.9277 9.9474,13.6746 26.7124,21.3985 48.2695,21.3985 32.9329,0 59.784,-17.802 74.2207,-45.7012 a 3.9203792,3.9203792 0 0 0 -3.4824,-5.7227 h -29.1993 a 3.9203792,3.9203792 0 0 0 -3.2148,1.6758 c -7.8493,11.2405 -18.7289,17.4395 -33.7012,17.4395 -12.1683,0 -19.4571,-3.9714 -23.7343,-10.9766 -4.2773,-7.0051 -5.4732,-17.8223 -2.8731,-31.5879 2.6002,-13.7657 7.8665,-24.8146 15.2949,-32.332 7.4285,-7.5174 16.9764,-11.6895 29.1446,-11.6895 14.9692,0 22.5201,5.6565 25.9629,16.3926 a 3.9203792,3.9203792 0 0 0 3.7304,2.7227 h 29.2031 a 3.9203792,3.9203792 0 0 0 3.8809,-4.4629 c -1.9793,-14.1696 -8.1273,-26.0877 -18.0996,-34.3086 -9.9723,-8.2208 -23.5864,-12.6484 -40.0527,-12.6485 z m -193.2051,2.8653 a 3.9203792,3.9203792 0 0 0 -3.8496,3.1933 l -25.9961,137.625 a 3.9203792,3.9203792 0 0 0 3.8496,4.6465 h 25.9961 a 3.9203792,3.9203792 0 0 0 3.8496,-3.1933 l 8.2129,-43.4454 h 28.8613 c 2.6849,0 8.0306,-0.1703 12.1973,-0.8085 26.7508,-4.06 42.6743,-23.5578 47.2676,-47.875 2.2946,-12.1485 1.5763,-23.3259 -3.3594,-32.2305 -4.9339,-8.9012 -14.1372,-15.0409 -26.9688,-17.0938 -3.9809,-0.6479 -9.0875,-0.8183 -11.9511,-0.8183 z m 24.6582,32.1172 h 27.7187 c 2.4915,0 5.7117,0.2522 7.4825,0.7871 a 3.9203792,3.9203792 0 0 0 0.047,0.014 c 3.8557,1.1087 5.3692,3.0687 6.3183,5.8926 0.9491,2.8239 0.8955,6.5961 0.2754,9.8789 -1.2401,6.5652 -4.9717,14.8133 -14.1484,17.1934 a 3.9203792,3.9203792 0 0 0 -0.039,0.01 c -2.1928,0.5944 -5.4579,0.8183 -7.9493,0.8183 h -26.2382 z" />
</svg>
