<?xml version="1.0" encoding="utf-8" standalone="no"?>
<svg
   width="407.66934"
   height="257.80853"
   viewBox="0 0 407.66934 257.80853"
   version="1.1"
   id="hashtag"
   xmlns="http://www.w3.org/2000/svg"
   xmlns:svg="http://www.w3.org/2000/svg">
  <path
     id="path1"
     style="fill:#ff0000"
     d="m 1.1483672,66.031133 h 3.5681429 l 0.861275,-8.202625 h 2.911932 l -0.861275,8.202625 h 3.5681419 l 0.861276,-8.202625 h 2.09167 l 0.328104,-3.199027 h -2.091669 l 0.77925,-7.505398 h 2.091669 l 0.328105,-3.199027 h -2.09167 l 0.697224,-6.603112 H 10.6224 l -0.6972229,6.603112 h -2.911933 l 0.697225,-6.603112 h -3.568144 l -0.697223,6.603112 H 1.3944462 l -0.3281047,3.199027 h 2.0506566 l -0.77925,7.505398 H 0.3281046 L 0,57.828508 h 2.0096431 z m 4.7575229,-11.401652 0.77925,-7.505398 h 2.911932 l -0.779249,7.505398 z M 23.787564,66.441262 c 4.429417,0 6.808179,-2.624839 6.808179,-7.30034 0,-3.568135 -1.189381,-5.864875 -4.962589,-9.186931 -2.952945,-2.58383 -3.896247,-4.101323 -3.896247,-6.192984 0,-1.968632 0.820263,-2.747879 2.255722,-2.747879 1.43546,0 2.255722,0.779247 2.255722,2.829898 V 45.3195 h 4.265366 v -1.189375 c 0,-4.593471 -2.173696,-7.21831 -6.562101,-7.21831 -4.388405,0 -6.726153,2.624839 -6.726153,7.13628 0,3.281047 1.230394,5.618797 5.003601,8.940863 2.952946,2.583829 3.855235,4.101313 3.855235,6.480073 0,2.132681 -0.902289,2.870918 -2.337749,2.870918 -1.435459,0 -2.337748,-0.738237 -2.337748,-2.788889 v -1.968631 h -4.265365 v 1.640523 c 0,4.593471 2.214708,7.21831 6.644127,7.21831 z m 9.391996,-0.410129 h 4.511445 V 37.321944 H 33.17956 Z m 7.874498,0 h 3.93726 V 44.294174 h 0.08203 l 3.28105,21.736959 h 3.773208 l 3.28105,-21.736959 h 0.08203 v 21.736959 h 4.265365 V 37.321944 H 53.31699 l -2.870919,20.547574 h -0.08203 L 47.49312,37.321944 h -6.439062 z m 22.064988,0 H 67.63049 V 53.727195 h 1.558499 c 2.050653,0 2.829909,0.861276 2.829909,3.527125 v 5.249688 c 0,2.33774 0.16405,2.788888 0.410129,3.527125 h 4.59347 C 76.571349,64.964788 76.53034,63.939462 76.53034,62.545018 v -5.044619 c 0,-3.240036 -0.738237,-5.372717 -2.993958,-6.069944 v -0.08206 c 2.009642,-0.820266 2.952948,-2.706869 2.952948,-5.659816 v -1.763563 c 0,-4.429421 -2.009652,-6.603112 -6.685142,-6.603112 H 63.119046 Z M 67.63049,49.625882 v -8.202626 h 2.050657 c 1.599514,0 2.296732,0.902287 2.296732,2.952948 v 2.214701 c 0,2.29674 -1.025326,3.034977 -2.706863,3.034977 z m 10.827461,16.405251 h 4.183343 l 0.820257,-5.618796 h 5.126638 v -0.08206 l 0.820267,5.700827 h 4.511442 l -4.675492,-28.70919 h -6.110954 z m 5.536767,-9.51505 1.968632,-14.19054 h 0.08206 l 2.009642,14.19054 z m 18.373822,9.925179 c 4.34739,0 6.64412,-2.624839 6.64412,-7.054261 v -4.060293 h -4.26536 v 4.388402 c 0,1.886602 -0.90228,2.624839 -2.25572,2.624839 -1.35343,0 -2.25572,-0.738237 -2.25572,-2.624839 V 43.678977 c 0,-1.886602 0.90229,-2.665849 2.25572,-2.665849 1.35344,0 2.25572,0.779247 2.25572,2.665849 v 3.322066 h 4.26536 v -3.034977 c 0,-4.429412 -2.29673,-7.054251 -6.64412,-7.054251 -4.347392,0 -6.644132,2.624839 -6.644132,7.054251 v 15.420935 c 0,4.429422 2.29674,7.054261 6.644132,7.054261 z m 9.35096,-0.410129 h 4.51145 V 37.321944 h -4.51145 z m 7.87451,0 h 4.01928 V 45.073421 h 0.0821 l 5.41373,20.957712 h 4.63449 V 37.321944 h -4.01929 v 17.184498 h -0.0821 L 125.25381,37.321944 H 119.594 Z m 23.91058,0.410129 c 4.42941,0 6.72615,-2.624839 6.72615,-7.21831 v -9.392001 h -6.52109 v 4.101313 h 2.25573 v 5.618796 c 0,2.050652 -0.9023,2.788889 -2.33775,2.788889 -1.43546,0 -2.33775,-0.738237 -2.33775,-2.788889 V 43.843026 c 0,-2.050651 0.90229,-2.829898 2.33775,-2.829898 1.43545,0 2.33775,0.779247 2.33775,2.829898 v 2.747879 h 4.26536 v -2.46078 c 0,-4.593471 -2.29674,-7.21831 -6.72615,-7.21831 -4.42942,0 -6.72615,2.624839 -6.72615,7.21831 v 15.092827 c 0,4.593471 2.29673,7.21831 6.72615,7.21831 z m 16.32315,-0.410129 h 3.56815 l 0.86127,-8.202625 h 2.91194 l -0.86127,8.202625 h 3.56813 l 0.86128,-8.202625 h 2.09167 l 0.32811,-3.199027 h -2.09167 l 0.77924,-7.505398 h 2.09167 l 0.32811,-3.199027 h -2.09167 l 0.69722,-6.603112 h -3.56814 l -0.69722,6.603112 h -2.91193 l 0.69722,-6.603112 h -3.56814 l -0.69723,6.603112 h -2.05066 l -0.3281,3.199027 h 2.05066 l -0.77925,7.505398 h -2.00964 l -0.32811,3.199027 h 2.00964 z m 4.75753,-11.401652 0.77925,-7.505398 h 2.91193 l -0.77925,7.505398 z m 12.01679,11.401652 h 11.93482 V 61.92982 H 181.1135 V 37.321944 h -4.51144 z m 14.10852,0 h 4.51145 V 37.321944 h -4.51145 z m 7.8745,0 h 4.01929 V 45.073421 h 0.0821 l 5.41374,20.957712 h 4.63448 V 37.321944 h -4.01928 v 17.184498 h -0.0821 l -4.3884,-17.184498 h -5.65982 z m 24.07462,0.410129 c 4.42942,0 6.72615,-2.624839 6.72615,-7.21831 V 37.321944 h -4.34739 V 59.55106 c 0,2.050652 -0.86127,2.788889 -2.29673,2.788889 -1.43546,0 -2.29674,-0.738237 -2.29674,-2.788889 V 37.321944 h -4.51144 v 21.901008 c 0,4.593471 2.29674,7.21831 6.72615,7.21831 z m 8.65366,-0.410129 h 4.26537 l 3.36307,-10.007208 h 0.0821 l 3.28105,10.007208 h 4.75752 l -5.20867,-14.682698 4.96259,-14.026491 h -4.26536 l -3.117,9.268961 h -0.0821 l -3.03497,-9.268961 h -4.75753 l 4.96259,14.026491 z m 24.56679,0 h 3.56815 l 0.86127,-8.202625 h 2.91193 l -0.86127,8.202625 h 3.56814 l 0.86128,-8.202625 h 2.09167 l 0.3281,-3.199027 h -2.09166 l 0.77924,-7.505398 h 2.09167 l 0.3281,-3.199027 h -2.09167 l 0.69723,-6.603112 h -3.56815 l -0.69721,6.603112 h -2.91194 l 0.69723,-6.603112 h -3.56815 l -0.69722,6.603112 h -2.05066 l -0.32811,3.199027 h 2.05067 l -0.77925,7.505398 h -2.00965 l -0.3281,3.199027 h 2.00964 z m 4.75752,-11.401652 0.77926,-7.505398 h 2.91193 l -0.77925,7.505398 z m 12.0168,11.401652 h 4.51144 V 53.522126 h 5.82387 v -4.101313 h -5.82387 v -7.997557 h 7.42338 v -4.101312 h -11.93482 z m 14.10852,0 h 11.93482 V 61.92982 h -7.42337 V 37.321944 h -4.51145 z m 14.10849,0 h 4.51145 V 37.321944 h -4.51145 z m 14.27255,0.410129 c 4.42942,0 6.72615,-2.624839 6.72615,-7.21831 v -9.392001 h -6.52108 v 4.101313 h 2.25572 v 5.618796 c 0,2.050652 -0.90229,2.788889 -2.33775,2.788889 -1.43546,0 -2.33775,-0.738237 -2.33775,-2.788889 V 43.843026 c 0,-2.050651 0.90229,-2.829898 2.33775,-2.829898 1.43546,0 2.33775,0.779247 2.33775,2.829898 v 2.747879 h 4.26536 v -2.46078 c 0,-4.593471 -2.29673,-7.21831 -6.72615,-7.21831 -4.42942,0 -6.72616,2.624839 -6.72616,7.21831 v 15.092827 c 0,4.593471 2.29674,7.21831 6.72616,7.21831 z m 9.63805,-0.410129 h 4.51145 V 53.111997 h 4.83955 v 12.919136 h 4.51144 V 37.321944 h -4.51144 v 11.688741 h -4.83955 V 37.321944 h -4.51145 z m 20.75255,0 h 4.51144 V 41.423256 h 4.71651 v -4.101312 h -13.94446 v 4.101312 h 4.71651 z m 17.26647,0.410129 c 4.42941,0 6.80817,-2.624839 6.80817,-7.30034 0,-3.568135 -1.18938,-5.864875 -4.96258,-9.186931 -2.95295,-2.58383 -3.89625,-4.101323 -3.89625,-6.192984 0,-1.968632 0.82026,-2.747879 2.25572,-2.747879 1.43546,0 2.25572,0.779247 2.25572,2.829898 V 45.3195 h 4.26537 v -1.189375 c 0,-4.593471 -2.1737,-7.21831 -6.5621,-7.21831 -4.3884,0 -6.72615,2.624839 -6.72615,7.13628 0,3.281047 1.23039,5.618797 5.00359,8.940863 2.95295,2.583829 3.85524,4.101313 3.85524,6.480073 0,2.132681 -0.90229,2.870918 -2.33775,2.870918 -1.43546,0 -2.33774,-0.738237 -2.33774,-2.788889 v -1.968631 h -4.26537 v 1.640523 c 0,4.593471 2.21471,7.21831 6.64413,7.21831 z m 9.39199,-0.410129 h 4.51144 V 37.321944 h -4.51144 z m 7.87451,0 h 3.93725 V 44.294174 h 0.0821 l 3.28104,21.736959 h 3.77322 l 3.28105,-21.736959 h 0.0821 v 21.736959 h 4.26537 V 37.321944 h -6.43907 l -2.87091,20.547574 h -0.0821 l -2.87092,-20.547574 h -6.43905 z M 1.1483672,29.119318 h 3.5681429 l 0.861275,-8.202626 h 2.911932 l -0.861275,8.202626 h 3.5681419 l 0.861276,-8.202626 h 2.09167 l 0.328104,-3.199016 h -2.091669 l 0.77925,-7.505409 h 2.091669 l 0.328105,-3.1990263 h -2.09167 L 14.190543,0.4101283 H 10.6224 L 9.9251771,7.0132407 H 7.0132441 L 7.7104691,0.4101283 H 4.1423251 L 3.4451021,7.0132407 H 1.3944462 L 1.0663415,10.212267 h 2.0506566 l -0.77925,7.505409 H 0.3281046 L 0,20.916692 h 2.0096431 z m 4.7575229,-11.401642 0.77925,-7.505409 h 2.911932 l -0.779249,7.505409 z M 17.922686,29.119318 H 22.43413 V 16.61032 h 5.823865 V 12.509008 H 22.43413 V 4.5114407 h 7.423376 V 0.4101283 h -11.93482 z m 14.10851,0 h 11.93482 V 25.018005 H 36.54264 V 0.4101283 h -4.511444 z m 14.108511,0 h 4.511445 V 0.4101283 h -4.511445 z m 14.272546,0.410138 c 4.429418,0 6.726153,-2.624839 6.726153,-7.21831 v -9.39201 h -6.521087 v 4.101313 h 2.255722 v 5.618796 c 0,2.050662 -0.902289,2.788898 -2.337748,2.788898 -1.43546,0 -2.337749,-0.738236 -2.337749,-2.788898 V 6.9312207 c 0,-2.050661 0.902289,-2.829908 2.337749,-2.829908 1.435459,0 2.337748,0.779247 2.337748,2.829908 v 2.747879 h 4.265365 v -2.46079 C 67.138406,2.624839 64.841671,0 60.412253,0 55.982835,0 53.6861,2.624839 53.6861,7.2183097 V 22.311146 c 0,4.593471 2.296735,7.21831 6.726153,7.21831 z m 9.638043,-0.410138 h 4.511442 V 16.200182 h 4.839549 v 12.919136 h 4.511441 V 0.4101283 H 79.401287 V 12.098869 H 74.561738 V 0.4101283 h -4.511442 z m 20.752564,0 h 4.511438 V 4.5114407 h 4.716512 V 0.4101283 H 86.08635 v 4.1013124 h 4.71651 z m 17.26646,0.410138 c 4.42942,0 6.80818,-2.624839 6.80818,-7.300339 0,-3.568145 -1.18937,-5.864876 -4.96259,-9.186942 -2.95294,-2.583829 -3.89624,-4.1013123 -3.89624,-6.1929833 0,-1.968632 0.82026,-2.747879 2.25572,-2.747879 1.43546,0 2.25572,0.779247 2.25572,2.829908 v 1.476474 h 4.26537 V 7.2183097 C 114.79548,2.624839 112.62178,0 108.23338,0 c -4.38841,0 -6.72615,2.624839 -6.72615,7.1362797 0,3.2810563 1.23039,5.6188073 5.0036,8.9408633 2.95294,2.583829 3.85523,4.101312 3.85523,6.480082 0,2.132682 -0.90229,2.870918 -2.33775,2.870918 -1.43545,0 -2.33775,-0.738236 -2.33775,-2.788898 v -1.968632 h -4.26536 v 1.640533 c 0,4.593471 2.21471,7.21831 6.64412,7.21831 z m 9.392,-0.410138 h 4.51144 V 0.4101283 h -4.51144 z m 7.8745,0 h 3.93726 V 7.3823587 h 0.0821 l 3.28105,21.7369593 h 3.7732 l 3.28106,-21.7369593 h 0.0821 V 29.119318 h 4.26536 V 0.4101283 h -6.43906 l -2.87092,20.5475837 h -0.0821 L 131.77491,0.4101283 h -6.43906 z m 28.75012,0 h 3.56814 l 0.86127,-8.202626 h 2.91194 l -0.86128,8.202626 h 3.56815 l 0.86127,-8.202626 h 2.09166 l 0.32811,-3.199016 h -2.09167 l 0.77926,-7.505409 h 2.09166 l 0.32811,-3.1990263 h -2.09167 l 0.69722,-6.6031124 h -3.56814 l -0.69723,6.6031124 h -2.91193 l 0.69723,-6.6031124 h -3.56815 l -0.69722,6.6031124 h -2.05065 l -0.32811,3.1990263 h 2.05066 l -0.77926,7.505409 h -2.00964 l -0.3281,3.199016 h 2.00964 z m 4.75752,-11.401642 0.77924,-7.505409 h 2.91194 l -0.77924,7.505409 z m 17.88167,11.81178 c 4.42941,0 6.80817,-2.624839 6.80817,-7.300339 0,-3.568145 -1.18937,-5.864876 -4.96257,-9.186942 -2.95295,-2.583829 -3.89626,-4.1013123 -3.89626,-6.1929833 0,-1.968632 0.82027,-2.747879 2.25572,-2.747879 1.43547,0 2.25572,0.779247 2.25572,2.829908 v 1.476474 h 4.26537 V 7.2183097 C 183.45128,2.624839 181.27758,0 176.88918,0 c -4.3884,0 -6.72615,2.624839 -6.72615,7.1362797 0,3.2810563 1.2304,5.6188073 5.0036,8.9408633 2.95295,2.583829 3.85523,4.101312 3.85523,6.480082 0,2.132682 -0.90228,2.870918 -2.33775,2.870918 -1.43545,0 -2.33774,-0.738236 -2.33774,-2.788898 V 20.670613 H 170.081 v 1.640533 c 0,4.593471 2.21471,7.21831 6.64413,7.21831 z m 9.39201,-0.410138 h 4.51144 V 0.4101283 h -4.51144 z m 7.87449,0 h 3.93725 V 7.3823587 h 0.0821 l 3.28105,21.7369593 h 3.77321 l 3.28105,-21.7369593 h 0.0821 V 29.119318 h 4.26536 V 0.4101283 h -6.43906 l -2.87092,20.5475837 h -0.0821 L 200.43068,0.4101283 h -6.43905 z m 22.06499,0 h 4.51144 V 16.81538 h 1.5585 c 2.05065,0 2.82991,0.861276 2.82991,3.527135 v 5.249678 c 0,2.33775 0.16405,2.788888 0.41013,3.527125 h 4.59347 c -0.45115,-1.066336 -0.49216,-2.091671 -0.49216,-3.486115 v -5.044609 c 0,-3.240037 -0.73823,-5.372728 -2.99395,-6.069945 v -0.08206 c 2.00964,-0.820267 2.95294,-2.706869 2.95294,-5.6598163 v -1.763562 c 0,-4.4294212 -2.00965,-6.6031122 -6.68514,-6.6031122 h -6.68514 z m 4.51144,-16.405251 V 4.5114407 h 2.05066 c 1.59951,0 2.29673,0.902297 2.29673,2.952948 v 2.214711 c 0,2.2967303 -1.02532,3.0349673 -2.70687,3.0349673 z m 10.82746,16.405251 h 4.18335 l 0.82025,-5.618796 h 5.12665 v -0.08206 l 0.82026,5.700826 h 4.51145 l -4.6755,-28.7091895 h -6.11096 z m 5.53678,-9.51504 1.96863,-14.1905403 h 0.0821 l 2.00964,14.1905403 z m 18.3738,9.925178 c 4.3474,0 6.64414,-2.624839 6.64414,-7.05426 v -4.060303 h -4.26538 v 4.388401 c 0,1.886613 -0.90228,2.624849 -2.25572,2.624849 -1.35343,0 -2.25572,-0.738236 -2.25572,-2.624849 V 6.7671617 c 0,-1.886602 0.90229,-2.665849 2.25572,-2.665849 1.35344,0 2.25572,0.779247 2.25572,2.665849 v 3.3220663 h 4.26538 V 7.0542607 C 261.95024,2.624839 259.6535,0 255.3061,0 c -4.34739,0 -6.64412,2.624839 -6.64412,7.0542607 V 22.475196 c 0,4.429421 2.29673,7.05426 6.64412,7.05426 z m 9.35099,-0.410138 h 4.51145 V 0.4101283 h -4.51145 z m 7.8745,0 h 4.01929 V 8.1616157 h 0.0821 l 5.41372,20.9577023 h 4.63449 V 0.4101283 H 282.6619 V 17.594636 h -0.0821 L 278.19139,0.4101283 h -5.65981 z m 23.91056,0.410138 c 4.42942,0 6.72616,-2.624839 6.72616,-7.21831 v -9.39201 h -6.52109 v 4.101313 h 2.25572 v 5.618796 c 0,2.050662 -0.90228,2.788898 -2.33775,2.788898 -1.43545,0 -2.33775,-0.738236 -2.33775,-2.788898 V 6.9312207 c 0,-2.050661 0.9023,-2.829908 2.33775,-2.829908 1.43547,0 2.33775,0.779247 2.33775,2.829908 v 2.747879 h 4.26537 v -2.46079 C 303.16831,2.624839 300.87157,0 296.44215,0 292.01274,0 289.716,2.624839 289.716,7.2183097 V 22.311146 c 0,4.593471 2.29674,7.21831 6.72615,7.21831 z m 16.32318,-0.410138 h 3.56814 l 0.86128,-8.202626 h 2.91193 l -0.86127,8.202626 h 3.56813 l 0.86128,-8.202626 h 2.09167 l 0.32811,-3.199016 h -2.09167 l 0.77925,-7.505409 h 2.09167 l 0.3281,-3.1990263 h -2.09167 l 0.69722,-6.6031124 h -3.56813 l -0.69723,6.6031124 h -2.91193 l 0.69722,-6.6031124 h -3.56814 l -0.69722,6.6031124 h -2.05067 l -0.32809,3.1990263 h 2.05065 l -0.77925,7.505409 h -2.00964 l -0.32811,3.199016 h 2.00964 z m 4.75753,-11.401642 0.77924,-7.505409 h 2.91194 l -0.77926,7.505409 z m 12.01679,11.401642 h 11.93482 v -4.101313 h -7.42338 V 0.4101283 h -4.51144 z m 14.10852,0 h 4.51144 V 0.4101283 h -4.51144 z m 7.87449,0 h 4.0193 V 8.1616157 h 0.0821 l 5.41373,20.9577023 h 4.63448 V 0.4101283 h -4.01928 V 17.594636 h -0.0821 l -4.3884,-17.1845077 h -5.65982 z m 24.07462,0.410138 c 4.42942,0 6.72616,-2.624839 6.72616,-7.21831 V 0.4101283 h -4.3474 V 22.639245 c 0,2.050662 -0.86126,2.788898 -2.29673,2.788898 -1.43546,0 -2.29674,-0.738236 -2.29674,-2.788898 V 0.4101283 h -4.51144 V 22.311146 c 0,4.593471 2.29674,7.21831 6.72615,7.21831 z m 8.65365,-0.410138 h 4.26536 l 3.36308,-10.007198 h 0.0821 l 3.28104,10.007198 H 400 L 394.79133,14.43662 399.75392,0.4101283 h -4.26537 l -3.117,9.2689714 h -0.0821 L 389.25452,0.4101283 H 384.497 L 389.45959,14.43662 Z M 1.1483672,250.50818 h 3.5681429 l 0.861275,-8.20263 h 2.911932 l -0.861275,8.20263 h 3.5681419 l 0.861276,-8.20263 h 2.09167 l 0.328104,-3.19901 h -2.091669 l 0.77925,-7.50541 h 2.091669 l 0.328105,-3.19903 h -2.09167 l 0.697224,-6.60311 H 10.6224 l -0.6972229,6.60311 h -2.911933 l 0.697225,-6.60311 h -3.568144 l -0.697223,6.60311 H 1.3944462 l -0.3281047,3.19903 h 2.0506566 l -0.77925,7.50541 H 0.3281046 L 0,242.30555 h 2.0096431 z m 4.7575229,-11.40164 0.77925,-7.50541 h 2.911932 l -0.779249,7.50541 z m 12.0167959,11.40164 h 4.511444 v -12.509 h 5.823865 v -4.10131 H 22.43413 v -7.99757 h 7.423376 v -4.10131 h -11.93482 z m 14.10851,0 h 11.93482 v -4.10131 H 36.54264 v -24.60788 h -4.511444 z m 14.108511,0 h 4.511445 v -28.70919 h -4.511445 z m 14.272546,0.41014 c 4.429418,0 6.726153,-2.62484 6.726153,-7.21831 V 234.308 h -6.521087 v 4.10131 h 2.255722 v 5.6188 c 0,2.05066 -0.902289,2.7889 -2.337748,2.7889 -1.43546,0 -2.337749,-0.73824 -2.337749,-2.7889 v -15.70803 c 0,-2.05066 0.902289,-2.8299 2.337749,-2.8299 1.435459,0 2.337748,0.77924 2.337748,2.8299 v 2.74788 h 4.265365 v -2.46079 c 0,-4.59347 -2.296735,-7.21831 -6.726153,-7.21831 -4.429418,0 -6.726153,2.62484 -6.726153,7.21831 v 15.09284 c 0,4.59347 2.296735,7.21831 6.726153,7.21831 z m 9.638043,-0.41014 h 4.511442 v -12.91914 h 4.839549 v 12.91914 h 4.511441 v -28.70919 h -4.511441 v 11.68874 h -4.839549 v -11.68874 h -4.511442 z m 20.752564,0 h 4.511438 V 225.9003 h 4.716512 v -4.10131 H 86.08635 v 4.10131 h 4.71651 z m 17.26646,0.41014 c 4.42942,0 6.80818,-2.62484 6.80818,-7.30034 0,-3.56815 -1.18937,-5.86488 -4.96259,-9.18694 -2.95294,-2.58383 -3.89624,-4.10132 -3.89624,-6.19299 0,-1.96863 0.82026,-2.74787 2.25572,-2.74787 1.43546,0 2.25572,0.77924 2.25572,2.8299 v 1.47648 h 4.26537 v -1.18939 c 0,-4.59347 -2.1737,-7.21831 -6.5621,-7.21831 -4.38841,0 -6.72615,2.62484 -6.72615,7.13628 0,3.28106 1.23039,5.61881 5.0036,8.94086 2.95294,2.58383 3.85523,4.10132 3.85523,6.48009 0,2.13268 -0.90229,2.87092 -2.33775,2.87092 -1.43545,0 -2.33775,-0.73824 -2.33775,-2.7889 v -1.96863 h -4.26536 v 1.64053 c 0,4.59347 2.21471,7.21831 6.64412,7.21831 z m 9.392,-0.41014 h 4.51144 v -28.70919 h -4.51144 z m 7.8745,0 h 3.93726 v -21.73696 h 0.0821 l 3.28105,21.73696 h 3.7732 l 3.28106,-21.73696 h 0.0821 v 21.73696 h 4.26536 v -28.70919 h -6.43906 l -2.87092,20.54758 h -0.0821 l -2.87092,-20.54758 h -6.43906 z m 28.75012,0 h 3.56814 l 0.86127,-8.20263 h 2.91194 l -0.86128,8.20263 h 3.56815 l 0.86127,-8.20263 h 2.09166 l 0.32811,-3.19901 h -2.09167 l 0.77926,-7.50541 h 2.09166 l 0.32811,-3.19903 h -2.09167 l 0.69722,-6.60311 h -3.56814 l -0.69723,6.60311 h -2.91193 l 0.69723,-6.60311 h -3.56815 l -0.69722,6.60311 h -2.05065 l -0.32811,3.19903 h 2.05066 l -0.77926,7.50541 h -2.00964 l -0.3281,3.19901 h 2.00964 z m 4.75752,-11.40164 0.77924,-7.50541 h 2.91194 l -0.77924,7.50541 z m 17.88167,11.81178 c 4.42941,0 6.80817,-2.62484 6.80817,-7.30034 0,-3.56815 -1.18937,-5.86488 -4.96257,-9.18694 -2.95295,-2.58383 -3.89626,-4.10132 -3.89626,-6.19299 0,-1.96863 0.82027,-2.74787 2.25572,-2.74787 1.43547,0 2.25572,0.77924 2.25572,2.8299 v 1.47648 h 4.26537 v -1.18939 c 0,-4.59347 -2.1737,-7.21831 -6.5621,-7.21831 -4.3884,0 -6.72615,2.62484 -6.72615,7.13628 0,3.28106 1.2304,5.61881 5.0036,8.94086 2.95295,2.58383 3.85523,4.10132 3.85523,6.48009 0,2.13268 -0.90228,2.87092 -2.33775,2.87092 -1.43545,0 -2.33774,-0.73824 -2.33774,-2.7889 v -1.96863 H 170.081 v 1.64053 c 0,4.59347 2.21471,7.21831 6.64413,7.21831 z m 9.39201,-0.41014 h 4.51144 v -28.70919 h -4.51144 z m 7.87449,0 h 3.93725 v -21.73696 h 0.0821 l 3.28105,21.73696 h 3.77321 l 3.28105,-21.73696 h 0.0821 v 21.73696 h 4.26536 v -28.70919 h -6.43906 l -2.87092,20.54758 h -0.0821 l -2.87095,-20.54758 h -6.43905 z m 22.06499,0 h 4.51144 v -12.30394 h 1.5585 c 2.05065,0 2.82991,0.86128 2.82991,3.52714 v 5.24967 c 0,2.33776 0.16405,2.78889 0.41013,3.52713 h 4.59347 c -0.45115,-1.06634 -0.49216,-2.09167 -0.49216,-3.48612 v -5.0446 c 0,-3.24004 -0.73823,-5.37273 -2.99395,-6.06995 v -0.0821 c 2.00964,-0.82026 2.95294,-2.70687 2.95294,-5.65981 v -1.76357 c 0,-4.42942 -2.00965,-6.60311 -6.68514,-6.60311 h -6.68514 z m 4.51144,-16.40525 v -8.20263 h 2.05066 c 1.59951,0 2.29673,0.9023 2.29673,2.95295 v 2.21471 c 0,2.29673 -1.02532,3.03497 -2.70687,3.03497 z m 10.82746,16.40525 h 4.18335 l 0.82025,-5.6188 h 5.12665 v -0.0821 l 0.82026,5.70083 h 4.51145 l -4.6755,-28.70919 h -6.11096 z m 5.53678,-9.51504 1.96863,-14.19054 h 0.0821 l 2.00964,14.19054 z m 18.3738,9.92518 c 4.3474,0 6.64414,-2.62484 6.64414,-7.05426 v -4.0603 h -4.26538 v 4.3884 c 0,1.88661 -0.90228,2.62485 -2.25572,2.62485 -1.35343,0 -2.25572,-0.73824 -2.25572,-2.62485 v -16.03614 c 0,-1.8866 0.90229,-2.66584 2.25572,-2.66584 1.35344,0 2.25572,0.77924 2.25572,2.66584 v 3.32207 h 4.26538 v -3.03497 c 0,-4.42942 -2.29674,-7.05426 -6.64414,-7.05426 -4.34739,0 -6.64412,2.62484 -6.64412,7.05426 v 15.42094 c 0,4.42942 2.29673,7.05426 6.64412,7.05426 z m 9.35099,-0.41014 h 4.51145 v -28.70919 h -4.51145 z m 7.8745,0 h 4.01929 v -20.9577 h 0.0821 l 5.41372,20.9577 h 4.63449 v -28.70919 h -4.01929 v 17.18451 h -0.0821 l -4.38841,-17.18451 h -5.65981 z m 23.91056,0.41014 c 4.42942,0 6.72616,-2.62484 6.72616,-7.21831 V 234.308 h -6.52109 v 4.10131 h 2.25572 v 5.6188 c 0,2.05066 -0.90228,2.7889 -2.33775,2.7889 -1.43545,0 -2.33775,-0.73824 -2.33775,-2.7889 v -15.70803 c 0,-2.05066 0.9023,-2.8299 2.33775,-2.8299 1.43547,0 2.33775,0.77924 2.33775,2.8299 v 2.74788 h 4.26537 v -2.46079 c 0,-4.59347 -2.29674,-7.21831 -6.72616,-7.21831 -4.42941,0 -6.72615,2.62484 -6.72615,7.21831 v 15.09284 c 0,4.59347 2.29674,7.21831 6.72615,7.21831 z m 16.32318,-0.41014 h 3.56814 l 0.86128,-8.20263 h 2.91193 l -0.86127,8.20263 h 3.56813 l 0.86128,-8.20263 h 2.09167 l 0.32811,-3.19901 h -2.09167 l 0.77925,-7.50541 h 2.09167 l 0.3281,-3.19903 h -2.09167 l 0.69722,-6.60311 h -3.56813 l -0.69723,6.60311 h -2.91193 l 0.69722,-6.60311 h -3.56814 l -0.69722,6.60311 h -2.05067 l -0.32809,3.19903 h 2.05065 l -0.77925,7.50541 h -2.00964 l -0.32811,3.19901 h 2.00964 z m 4.75753,-11.40164 0.77924,-7.50541 h 2.91194 l -0.77926,7.50541 z m 12.01679,11.40164 h 11.93482 v -4.10131 h -7.42338 v -24.60788 h -4.51144 z m 14.10852,0 h 4.51144 v -28.70919 h -4.51144 z m 7.87449,0 h 4.0193 v -20.9577 h 0.0821 l 5.41373,20.9577 h 4.63448 v -28.70919 h -4.01928 v 17.18451 h -0.0821 l -4.3884,-17.18451 h -5.65982 z m 24.07462,0.41014 c 4.42942,0 6.72616,-2.62484 6.72616,-7.21831 v -21.90102 h -4.3474 v 22.22912 c 0,2.05066 -0.86126,2.7889 -2.29673,2.7889 -1.43546,0 -2.29674,-0.73824 -2.29674,-2.7889 v -22.22912 h -4.51144 v 21.90102 c 0,4.59347 2.29674,7.21831 6.72615,7.21831 z m 8.65365,-0.41014 h 4.26536 l 3.36308,-10.0072 h 0.0821 l 3.28104,10.0072 H 400 l -5.20867,-14.6827 4.96259,-14.02649 h -4.26537 l -3.117,9.26897 h -0.0821 l -3.03497,-9.26897 H 384.497 l 4.96259,14.02649 z M 1.1483672,213.59636 h 3.5681429 l 0.861275,-8.20262 h 2.911932 l -0.861275,8.20262 h 3.5681419 l 0.861276,-8.20262 h 2.09167 l 0.328104,-3.19902 h -2.091669 l 0.77925,-7.50541 h 2.091669 l 0.328105,-3.19902 h -2.09167 l 0.697224,-6.60311 H 10.6224 l -0.6972229,6.60311 h -2.911933 l 0.697225,-6.60311 h -3.568144 l -0.697223,6.60311 H 1.3944462 l -0.3281047,3.19902 h 2.0506566 l -0.77925,7.50541 H 0.3281046 L 0,205.39374 h 2.0096431 z m 4.7575229,-11.40164 0.77925,-7.50541 h 2.911932 l -0.779249,7.50541 z m 12.0167959,11.40164 h 11.93482 v -4.10131 H 22.43413 v -24.60787 h -4.511444 z m 14.10851,0 h 4.511444 v -28.70918 h -4.511444 z m 7.874497,0 h 4.019287 v -20.9577 h 0.08203 l 5.413733,20.9577 h 4.634481 v -28.70918 h -4.019287 v 17.1845 h -0.08203 l -4.388404,-17.1845 h -5.659814 z m 24.074631,0.41014 c 4.429418,0 6.72615,-2.62484 6.72615,-7.21831 v -21.90101 h -4.347389 v 22.22911 c 0,2.05066 -0.861275,2.7889 -2.296735,2.7889 -1.435459,0 -2.296736,-0.73824 -2.296736,-2.7889 V 184.88718 H 57.25417 v 21.90101 c 0,4.59347 2.296736,7.21831 6.726154,7.21831 z m 8.653653,-0.41014 h 4.265372 l 3.363076,-10.00719 h 0.08206 l 3.281056,10.00719 h 4.75752 l -5.208668,-14.68269 4.962589,-14.02649 h -4.265363 l -3.116997,9.26897 h -0.08206 l -3.034967,-9.26897 h -4.75753 l 4.962589,14.02649 z m 24.566781,0 h 3.568152 l 0.86128,-8.20262 h 2.91192 l -0.86127,8.20262 h 3.56814 l 0.86128,-8.20262 h 2.09167 l 0.3281,-3.19902 h -2.09166 l 0.77924,-7.50541 h 2.09168 l 0.32809,-3.19902 h -2.09166 l 0.69722,-6.60311 h -3.56814 l -0.69722,6.60311 h -2.91194 l 0.69723,-6.60311 h -3.56815 l -0.697222,6.60311 h -2.05066 l -0.3281,3.19902 h 2.05066 l -0.77925,7.50541 h -2.00964 l -0.32811,3.19902 h 2.00964 z m 4.757532,-11.40164 0.77925,-7.50541 h 2.91193 l -0.77925,7.50541 z m 12.0168,11.40164 h 4.51144 v -12.50899 h 5.82386 v -4.10132 h -5.82386 v -7.99756 h 7.42338 v -4.10131 h -11.93482 z m 14.10851,0 h 11.93482 v -4.10131 h -7.42338 v -24.60787 h -4.51144 z m 14.1085,0 h 4.51145 v -28.70918 h -4.51145 z m 14.27255,0.41014 c 4.42942,0 6.72615,-2.62484 6.72615,-7.21831 v -9.39201 h -6.52108 v 4.10132 h 2.25572 v 5.61879 c 0,2.05066 -0.90229,2.7889 -2.33775,2.7889 -1.43546,0 -2.33775,-0.73824 -2.33775,-2.7889 v -15.70802 c 0,-2.05066 0.90229,-2.82991 2.33775,-2.82991 1.43546,0 2.33775,0.77925 2.33775,2.82991 v 2.74788 h 4.26536 v -2.46079 c 0,-4.59347 -2.29673,-7.21831 -6.72615,-7.21831 -4.42942,0 -6.72615,2.62484 -6.72615,7.21831 v 15.09283 c 0,4.59347 2.29673,7.21831 6.72615,7.21831 z m 9.63804,-0.41014 h 4.51144 v -12.91913 h 4.83955 v 12.91913 h 4.51144 v -28.70918 h -4.51144 v 11.68874 h -4.83955 v -11.68874 h -4.51144 z m 20.75257,0 h 4.51145 v -24.60787 h 4.71651 v -4.10131 h -13.94446 v 4.10131 h 4.7165 z m 17.26646,0.41014 c 4.42941,0 6.80817,-2.62484 6.80817,-7.30034 0,-3.56814 -1.18937,-5.86487 -4.96259,-9.18694 -2.95294,-2.58383 -3.89624,-4.10131 -3.89624,-6.19298 0,-1.96863 0.82026,-2.74788 2.25572,-2.74788 1.43546,0 2.25572,0.77925 2.25572,2.82991 v 1.47647 h 4.26537 v -1.18938 c 0,-4.59347 -2.1737,-7.21831 -6.5621,-7.21831 -4.3884,0 -6.72615,2.62484 -6.72615,7.13628 0,3.28105 1.23039,5.6188 5.0036,8.94086 2.95294,2.58383 3.85523,4.10131 3.85523,6.48008 0,2.13268 -0.90229,2.87092 -2.33775,2.87092 -1.43545,0 -2.33775,-0.73824 -2.33775,-2.7889 v -1.96863 h -4.26536 v 1.64053 c 0,4.59347 2.21471,7.21831 6.64413,7.21831 z m 9.392,-0.41014 h 4.51145 v -28.70918 h -4.51145 z m 7.87449,0 h 3.93726 v -21.73695 h 0.0821 l 3.28105,21.73695 h 3.77321 l 3.28105,-21.73695 h 0.0821 v 21.73695 h 4.26536 v -28.70918 h -6.43906 l -2.87092,20.54758 h -0.0821 l -2.87092,-20.54758 h -6.43906 z m 28.75013,0 h 3.56814 l 0.86128,-8.20262 h 2.91194 l -0.86128,8.20262 h 3.56814 l 0.86127,-8.20262 h 2.09167 l 0.32811,-3.19902 h -2.09167 l 0.77925,-7.50541 h 2.09167 l 0.32811,-3.19902 h -2.09167 l 0.69721,-6.60311 h -3.56813 l -0.69723,6.60311 h -2.91193 l 0.69722,-6.60311 h -3.56814 l -0.69722,6.60311 h -2.05066 l -0.3281,3.19902 h 2.05065 l -0.77925,7.50541 h -2.00964 l -0.32811,3.19902 h 2.00964 z m 4.75753,-11.40164 0.77924,-7.50541 h 2.91193 l -0.77924,7.50541 z m 17.88165,11.81178 c 4.42941,0 6.80818,-2.62484 6.80818,-7.30034 0,-3.56814 -1.18938,-5.86487 -4.96258,-9.18694 -2.95295,-2.58383 -3.89626,-4.10131 -3.89626,-6.19298 0,-1.96863 0.82027,-2.74788 2.25572,-2.74788 1.43547,0 2.25573,0.77925 2.25573,2.82991 v 1.47647 h 4.26536 v -1.18938 c 0,-4.59347 -2.1737,-7.21831 -6.5621,-7.21831 -4.3884,0 -6.72615,2.62484 -6.72615,7.13628 0,3.28105 1.2304,5.6188 5.0036,8.94086 2.95295,2.58383 3.85523,4.10131 3.85523,6.48008 0,2.13268 -0.90228,2.87092 -2.33775,2.87092 -1.43545,0 -2.33774,-0.73824 -2.33774,-2.7889 v -1.96863 h -4.26537 v 1.64053 c 0,4.59347 2.21471,7.21831 6.64413,7.21831 z m 9.39202,-0.41014 h 4.51145 v -28.70918 h -4.51145 z m 7.87448,0 h 3.93725 v -21.73695 h 0.0821 l 3.28105,21.73695 h 3.77321 l 3.28105,-21.73695 h 0.0821 v 21.73695 h 4.26536 V 184.88718 H 302.307 l -2.87092,20.54758 h -0.0821 l -2.87093,-20.54758 H 290.044 Z m 22.06499,0 h 4.51144 v -12.30393 h 1.5585 c 2.05066,0 2.82991,0.86127 2.82991,3.52713 v 5.24968 c 0,2.33775 0.16405,2.78889 0.41013,3.52712 h 4.59347 c -0.45115,-1.06633 -0.49216,-2.09166 -0.49216,-3.48611 v -5.04461 c 0,-3.24004 -0.73823,-5.37273 -2.99395,-6.06994 v -0.0821 c 2.00964,-0.82027 2.95294,-2.70687 2.95294,-5.65982 v -1.76356 c 0,-4.42942 -2.00965,-6.60311 -6.68514,-6.60311 h -6.68514 z m 4.51144,-16.40525 v -8.20262 h 2.05066 c 1.59951,0 2.29673,0.90229 2.29673,2.95295 v 2.21471 c 0,2.29673 -1.02532,3.03496 -2.70686,3.03496 z m 10.82746,16.40525 h 4.18335 l 0.82026,-5.61879 h 5.12664 v -0.0821 l 0.82026,5.70083 h 4.51145 l -4.6755,-28.70919 h -6.11095 z m 5.53678,-9.51504 1.96863,-14.19054 h 0.0821 l 2.00964,14.19054 z m 18.37381,9.92518 c 4.34739,0 6.64413,-2.62484 6.64413,-7.05426 v -4.0603 h -4.26537 v 4.38841 c 0,1.8866 -0.90229,2.62484 -2.25573,2.62484 -1.35343,0 -2.25572,-0.73824 -2.25572,-2.62484 v -16.03614 c 0,-1.8866 0.90229,-2.66585 2.25572,-2.66585 1.35344,0 2.25573,0.77925 2.25573,2.66585 v 3.32206 h 4.26537 v -3.03496 c 0,-4.42942 -2.29674,-7.05426 -6.64413,-7.05426 -4.3474,0 -6.64413,2.62484 -6.64413,7.05426 v 15.42093 c 0,4.42942 2.29673,7.05426 6.64413,7.05426 z m 9.35097,-0.41014 h 4.51144 v -28.70918 h -4.51144 z m 7.87449,0 h 4.0193 v -20.9577 h 0.0821 l 5.41373,20.9577 h 4.63448 v -28.70918 h -4.01928 v 17.1845 h -0.0821 l -4.38841,-17.1845 h -5.65982 z m 23.9106,0.41014 c 4.42942,0 6.72616,-2.62484 6.72616,-7.21831 v -9.39201 h -6.52109 v 4.10132 h 2.25572 v 5.61879 c 0,2.05066 -0.90229,2.7889 -2.33775,2.7889 -1.43546,0 -2.33775,-0.73824 -2.33775,-2.7889 v -15.70802 c 0,-2.05066 0.90229,-2.82991 2.33775,-2.82991 1.43546,0 2.33775,0.77925 2.33775,2.82991 v 2.74788 h 4.26537 v -2.46079 c 0,-4.59347 -2.29674,-7.21831 -6.72616,-7.21831 -4.42942,0 -6.72615,2.62484 -6.72615,7.21831 v 15.09283 c 0,4.59347 2.29673,7.21831 6.72615,7.21831 z M 1.1483672,176.27442 h 3.5681429 l 0.861275,-8.20262 h 2.911932 l -0.861275,8.20262 h 3.5681419 l 0.861276,-8.20262 h 2.09167 l 0.328104,-3.19903 h -2.091669 l 0.77925,-7.5054 h 2.091669 l 0.328105,-3.19903 h -2.09167 l 0.697224,-6.60311 H 10.6224 l -0.6972229,6.60311 h -2.911933 l 0.697225,-6.60311 h -3.568144 l -0.697223,6.60311 H 1.3944462 l -0.3281047,3.19903 h 2.0506566 l -0.77925,7.5054 H 0.3281046 L 0,168.0718 h 2.0096431 z m 4.7575229,-11.40165 0.77925,-7.5054 h 2.911932 l -0.779249,7.5054 z m 17.8816739,11.81178 c 4.429417,0 6.808179,-2.62484 6.808179,-7.30034 0,-3.56813 -1.189381,-5.86488 -4.962589,-9.18693 -2.952945,-2.58383 -3.896247,-4.10132 -3.896247,-6.19299 0,-1.96863 0.820263,-2.74787 2.255722,-2.74787 1.43546,0 2.255722,0.77924 2.255722,2.82989 v 1.47648 h 4.265366 v -1.18938 c 0,-4.59347 -2.173696,-7.21831 -6.562101,-7.21831 -4.388405,0 -6.726153,2.62484 -6.726153,7.13628 0,3.28105 1.230394,5.6188 5.003601,8.94087 2.952946,2.58383 3.855235,4.10131 3.855235,6.48007 0,2.13268 -0.902289,2.87092 -2.337749,2.87092 -1.435459,0 -2.337748,-0.73824 -2.337748,-2.78889 v -1.96863 h -4.265365 v 1.64052 c 0,4.59347 2.214708,7.21831 6.644127,7.21831 z m 9.391996,-0.41013 h 4.511445 V 147.56523 H 33.17956 Z m 7.874498,0 h 3.93726 v -21.73696 h 0.08203 l 3.28105,21.73696 h 3.773208 l 3.28105,-21.73696 h 0.08203 v 21.73696 h 4.265365 V 147.56523 H 53.31699 l -2.870919,20.54758 h -0.08203 L 47.493122,147.56523 H 41.05406 Z m 22.064988,0 h 4.511444 v -12.30394 h 1.558499 c 2.050653,0 2.829909,0.86128 2.829909,3.52713 v 5.24969 c 0,2.33774 0.16405,2.78888 0.410129,3.52712 h 4.59347 c -0.451148,-1.06634 -0.492157,-2.09167 -0.492157,-3.48611 v -5.04462 c 0,-3.24004 -0.738237,-5.37272 -2.993958,-6.06995 v -0.0821 c 2.009642,-0.82026 2.952948,-2.70687 2.952948,-5.65981 v -1.76357 c 0,-4.42942 -2.009652,-6.60311 -6.685142,-6.60311 h -6.685142 z m 4.511444,-16.40525 v -8.20263 h 2.050657 c 1.599514,0 2.296732,0.90229 2.296732,2.95295 v 2.2147 c 0,2.29674 -1.025326,3.03498 -2.706863,3.03498 z m 10.827461,16.40525 h 4.183343 l 0.820257,-5.6188 h 5.126638 v -0.082 l 0.820267,5.70082 h 4.511442 L 89.244406,147.5652 h -6.110954 z m 5.536767,-9.51505 1.968632,-14.19054 h 0.08206 l 2.009642,14.19054 z m 18.373822,9.92518 c 4.34739,0 6.64412,-2.62484 6.64412,-7.05426 V 165.57 h -4.26536 v 4.3884 c 0,1.8866 -0.90228,2.62484 -2.25572,2.62484 -1.35343,0 -2.25572,-0.73824 -2.25572,-2.62484 v -16.03614 c 0,-1.8866 0.90229,-2.66584 2.25572,-2.66584 1.35344,0 2.25572,0.77924 2.25572,2.66584 v 3.32207 h 4.26536 v -3.03498 c 0,-4.42941 -2.29673,-7.05425 -6.64412,-7.05425 -4.347392,0 -6.644132,2.62484 -6.644132,7.05425 v 15.42094 c 0,4.42942 2.29674,7.05426 6.644132,7.05426 z m 9.35096,-0.41013 h 4.51145 v -28.70919 h -4.51145 z m 7.87451,0 h 4.01928 v -20.95771 h 0.0821 l 5.41373,20.95771 h 4.63449 v -28.70919 h -4.01929 v 17.1845 h -0.0821 l -4.38841,-17.1845 H 119.594 Z m 23.91058,0.41013 c 4.42941,0 6.72615,-2.62484 6.72615,-7.21831 v -9.392 h -6.52109 v 4.10131 h 2.25573 v 5.6188 c 0,2.05065 -0.9023,2.78889 -2.33775,2.78889 -1.43546,0 -2.33775,-0.73824 -2.33775,-2.78889 v -15.70804 c 0,-2.05065 0.90229,-2.82989 2.33775,-2.82989 1.43545,0 2.33775,0.77924 2.33775,2.82989 v 2.74788 h 4.26536 v -2.46078 c 0,-4.59347 -2.29674,-7.21831 -6.72615,-7.21831 -4.42942,0 -6.72615,2.62484 -6.72615,7.21831 v 15.09283 c 0,4.59347 2.29673,7.21831 6.72615,7.21831 z m 16.32315,-0.41013 h 3.56815 l 0.86127,-8.20262 h 2.91194 l -0.86127,8.20262 h 3.56813 l 0.86128,-8.20262 h 2.09167 l 0.32811,-3.19903 h -2.09167 l 0.77924,-7.5054 h 2.09167 l 0.32811,-3.19903 h -2.09167 l 0.69722,-6.60311 h -3.56814 l -0.69722,6.60311 h -2.91193 l 0.69722,-6.60311 h -3.56814 l -0.69723,6.60311 h -2.05066 l -0.3281,3.19903 h 2.05066 l -0.77925,7.5054 h -2.00964 l -0.32811,3.19903 h 2.00964 z m 4.75753,-11.40165 0.77925,-7.5054 h 2.91193 l -0.77925,7.5054 z m 12.01679,11.40165 h 11.93482 v -4.10131 h -7.42338 v -24.60788 h -4.51144 z m 14.10852,0 h 4.51145 v -28.70919 h -4.51145 z m 7.8745,0 h 4.01929 v -20.95771 h 0.0821 l 5.41374,20.95771 h 4.63448 v -28.70919 h -4.01928 v 17.1845 h -0.0821 l -4.3884,-17.1845 h -5.65982 z m 24.07462,0.41013 c 4.42942,0 6.72615,-2.62484 6.72615,-7.21831 v -21.90101 h -4.34739 v 22.22912 c 0,2.05065 -0.86127,2.78889 -2.29673,2.78889 -1.43546,0 -2.29674,-0.73824 -2.29674,-2.78889 v -22.22912 h -4.51144 v 21.90101 c 0,4.59347 2.29674,7.21831 6.72615,7.21831 z m 8.65366,-0.41013 h 4.26537 l 3.36307,-10.00721 h 0.0821 l 3.28105,10.00721 h 4.75752 l -5.20867,-14.6827 4.96259,-14.02649 h -4.26536 l -3.117,9.26896 h -0.0821 l -3.03497,-9.26896 h -4.75753 l 4.96259,14.02649 z m 24.56679,0 h 3.56815 l 0.86127,-8.20262 h 2.91193 l -0.86127,8.20262 h 3.56814 l 0.86128,-8.20262 h 2.09167 l 0.3281,-3.19903 h -2.09166 l 0.77924,-7.5054 h 2.09167 l 0.3281,-3.19903 h -2.09167 l 0.69723,-6.60311 h -3.56815 l -0.69721,6.60311 h -2.91194 l 0.69723,-6.60311 h -3.56815 l -0.69722,6.60311 h -2.05066 l -0.32811,3.19903 h 2.05067 l -0.77925,7.5054 h -2.00965 l -0.3281,3.19903 h 2.00964 z m 4.75752,-11.40165 0.77926,-7.5054 h 2.91193 l -0.77925,7.5054 z m 12.0168,11.40165 h 4.51144 v -12.50901 h 5.82387 v -4.10131 h -5.82387 v -7.99756 h 7.42338 v -4.10131 h -11.93482 z m 14.10852,0 h 11.93482 v -4.10131 h -7.42337 v -24.60788 h -4.51145 z m 14.10849,0 h 4.51145 v -28.70919 h -4.51145 z m 14.27255,0.41013 c 4.42942,0 6.72615,-2.62484 6.72615,-7.21831 v -9.392 h -6.52108 v 4.10131 h 2.25572 v 5.6188 c 0,2.05065 -0.90229,2.78889 -2.33775,2.78889 -1.43546,0 -2.33775,-0.73824 -2.33775,-2.78889 v -15.70804 c 0,-2.05065 0.90229,-2.82989 2.33775,-2.82989 1.43546,0 2.33775,0.77924 2.33775,2.82989 v 2.74788 h 4.26536 v -2.46078 c 0,-4.59347 -2.29673,-7.21831 -6.72615,-7.21831 -4.42942,0 -6.72616,2.62484 -6.72616,7.21831 v 15.09283 c 0,4.59347 2.29674,7.21831 6.72616,7.21831 z m 9.63805,-0.41013 h 4.51145 v -12.91913 h 4.83955 v 12.91913 h 4.51144 v -28.70919 h -4.51144 v 11.68874 h -4.83955 v -11.68874 h -4.51145 z m 20.75255,0 h 4.51144 v -24.60788 h 4.71651 v -4.10131 h -13.94446 v 4.10131 h 4.71651 z m 17.26647,0.41013 c 4.42941,0 6.80817,-2.62484 6.80817,-7.30034 0,-3.56813 -1.18938,-5.86488 -4.96258,-9.18693 -2.95295,-2.58383 -3.89625,-4.10132 -3.89625,-6.19299 0,-1.96863 0.82026,-2.74787 2.25572,-2.74787 1.43546,0 2.25572,0.77924 2.25572,2.82989 v 1.47648 h 4.26537 v -1.18938 c 0,-4.59347 -2.1737,-7.21831 -6.5621,-7.21831 -4.3884,0 -6.72615,2.62484 -6.72615,7.13628 0,3.28105 1.23039,5.6188 5.00359,8.94087 2.95295,2.58383 3.85524,4.10131 3.85524,6.48007 0,2.13268 -0.90229,2.87092 -2.33775,2.87092 -1.43546,0 -2.33774,-0.73824 -2.33774,-2.78889 v -1.96863 h -4.26537 v 1.64052 c 0,4.59347 2.21471,7.21831 6.64413,7.21831 z m 9.39199,-0.41013 h 4.51144 v -28.70919 h -4.51144 z m 7.87451,0 h 3.93725 v -21.73696 h 0.0821 l 3.28104,21.73696 h 3.77322 l 3.28105,-21.73696 h 0.0821 v 21.73696 h 4.26537 v -28.70919 h -6.43907 l -2.87091,20.54758 h -0.0821 l -2.87092,-20.54758 h -6.43905 z M 1.1483672,139.36261 h 3.5681429 l 0.861275,-8.20263 h 2.911932 l -0.861275,8.20263 h 3.5681419 l 0.861276,-8.20263 h 2.09167 l 0.328104,-3.19902 h -2.091669 l 0.77925,-7.5054 h 2.091669 l 0.328105,-3.19903 h -2.09167 l 0.697224,-6.60311 H 10.6224 l -0.6972229,6.60311 h -2.911933 l 0.697225,-6.60311 h -3.568144 l -0.697223,6.60311 H 1.3944462 l -0.3281047,3.19903 h 2.0506566 l -0.77925,7.5054 H 0.3281046 L 0,131.15998 h 2.0096431 z m 4.7575229,-11.40165 0.77925,-7.5054 h 2.911932 l -0.779249,7.5054 z m 12.0167959,11.40165 h 4.511444 v -12.509 h 5.823865 V 122.7523 H 22.43413 v -7.99757 h 7.423376 v -4.10131 h -11.93482 z m 14.10851,0 h 11.93482 v -4.10132 H 36.54264 v -24.60787 h -4.511444 z m 14.108511,0 h 4.511445 v -28.70919 h -4.511445 z m 14.272546,0.41013 c 4.429418,0 6.726153,-2.62483 6.726153,-7.21831 v -9.39201 h -6.521087 v 4.10132 h 2.255722 v 5.61879 c 0,2.05066 -0.902289,2.7889 -2.337748,2.7889 -1.43546,0 -2.337749,-0.73824 -2.337749,-2.7889 v -15.70802 c 0,-2.05066 0.902289,-2.82991 2.337749,-2.82991 1.435459,0 2.337748,0.77925 2.337748,2.82991 v 2.74788 h 4.265365 v -2.46079 c 0,-4.59347 -2.296735,-7.21831 -6.726153,-7.21831 -4.429418,0 -6.726153,2.62484 -6.726153,7.21831 v 15.09283 c 0,4.59348 2.296735,7.21831 6.726153,7.21831 z m 9.638043,-0.41013 h 4.511442 v -12.91914 h 4.839549 v 12.91914 h 4.511441 v -28.70919 h -4.511441 v 11.68874 h -4.839549 v -11.68874 h -4.511442 z m 20.752564,0 h 4.511438 v -24.60788 h 4.716512 v -4.10131 H 86.08635 v 4.10131 h 4.71651 z m 17.26646,0.41013 c 4.42942,0 6.80818,-2.62483 6.80818,-7.30034 0,-3.56814 -1.18937,-5.86487 -4.96259,-9.18694 -2.95294,-2.58383 -3.89624,-4.10131 -3.89624,-6.19298 0,-1.96863 0.82026,-2.74788 2.25572,-2.74788 1.43546,0 2.25572,0.77925 2.25572,2.82991 v 1.47647 h 4.26537 v -1.18938 c 0,-4.59347 -2.1737,-7.21831 -6.5621,-7.21831 -4.38841,0 -6.72615,2.62484 -6.72615,7.13628 0,3.28105 1.23039,5.6188 5.0036,8.94086 2.95294,2.58383 3.85523,4.10131 3.85523,6.48008 0,2.13268 -0.90229,2.87092 -2.33775,2.87092 -1.43545,0 -2.33775,-0.73824 -2.33775,-2.7889 v -1.96863 h -4.26536 v 1.64053 c 0,4.59348 2.21471,7.21831 6.64412,7.21831 z m 9.392,-0.41013 h 4.51144 v -28.70919 h -4.51144 z m 7.8745,0 h 3.93726 v -21.73696 h 0.0821 l 3.28105,21.73696 h 3.7732 l 3.28106,-21.73696 h 0.0821 v 21.73696 h 4.26536 v -28.70919 h -6.43906 l -2.87092,20.54758 h -0.0821 l -2.87092,-20.54758 h -6.43906 z m 28.75012,0 h 3.56814 l 0.86127,-8.20263 h 2.91194 l -0.86128,8.20263 h 3.56815 l 0.86127,-8.20263 h 2.09166 l 0.32811,-3.19902 h -2.09167 l 0.77926,-7.5054 h 2.09166 l 0.32811,-3.19903 h -2.09167 l 0.69722,-6.60311 h -3.56814 l -0.69723,6.60311 h -2.91193 l 0.69723,-6.60311 h -3.56815 l -0.69722,6.60311 h -2.05065 l -0.32811,3.19903 h 2.05066 l -0.77926,7.5054 h -2.00964 l -0.3281,3.19902 h 2.00964 z m 4.75752,-11.40165 0.77924,-7.5054 h 2.91194 l -0.77924,7.5054 z m 17.88167,11.81178 c 4.42941,0 6.80817,-2.62483 6.80817,-7.30034 0,-3.56814 -1.18937,-5.86487 -4.96257,-9.18694 -2.95295,-2.58383 -3.89626,-4.10131 -3.89626,-6.19298 0,-1.96863 0.82027,-2.74788 2.25572,-2.74788 1.43547,0 2.25572,0.77925 2.25572,2.82991 v 1.47647 h 4.26537 v -1.18938 c 0,-4.59347 -2.1737,-7.21831 -6.5621,-7.21831 -4.3884,0 -6.72615,2.62484 -6.72615,7.13628 0,3.28105 1.2304,5.6188 5.0036,8.94086 2.95295,2.58383 3.85523,4.10131 3.85523,6.48008 0,2.13268 -0.90228,2.87092 -2.33775,2.87092 -1.43545,0 -2.33774,-0.73824 -2.33774,-2.7889 V 130.9139 H 170.081 v 1.64053 c 0,4.59348 2.21471,7.21831 6.64413,7.21831 z m 9.39201,-0.41013 h 4.51144 v -28.70919 h -4.51144 z m 7.87449,0 h 3.93725 v -21.73696 h 0.0821 l 3.28105,21.73696 h 3.77321 l 3.28105,-21.73696 h 0.0821 v 21.73696 h 4.26536 v -28.70919 h -6.43906 l -2.87092,20.54758 h -0.0821 l -2.87095,-20.54758 h -6.43905 z m 22.06499,0 h 4.51144 v -12.30394 h 1.5585 c 2.05065,0 2.82991,0.86127 2.82991,3.52713 v 5.24968 c 0,2.33775 0.16405,2.78889 0.41013,3.52713 h 4.59347 c -0.45115,-1.06634 -0.49216,-2.09168 -0.49216,-3.48612 v -5.04461 c 0,-3.24003 -0.73823,-5.37273 -2.99395,-6.06994 v -0.0821 c 2.00964,-0.82027 2.95294,-2.70687 2.95294,-5.65982 v -1.76356 c 0,-4.42942 -2.00965,-6.60311 -6.68514,-6.60311 h -6.68514 z m 4.51144,-16.40526 v -8.20262 h 2.05066 c 1.59951,0 2.29673,0.9023 2.29673,2.95295 v 2.21471 c 0,2.29673 -1.02532,3.03496 -2.70687,3.03496 z m 10.82746,16.40526 h 4.18335 l 0.82025,-5.6188 h 5.12665 v -0.0821 l 0.82026,5.70083 h 4.51145 l -4.6755,-28.70919 h -6.11096 z m 5.53678,-9.51504 1.96863,-14.19054 h 0.0821 l 2.00964,14.19054 z m 18.3738,9.92517 c 4.3474,0 6.64414,-2.62483 6.64414,-7.05426 v -4.0603 h -4.26538 v 4.3884 c 0,1.88661 -0.90228,2.62485 -2.25572,2.62485 -1.35343,0 -2.25572,-0.73824 -2.25572,-2.62485 v -16.03613 c 0,-1.8866 0.90229,-2.66585 2.25572,-2.66585 1.35344,0 2.25572,0.77925 2.25572,2.66585 v 3.32207 h 4.26538 v -3.03497 c 0,-4.42942 -2.29674,-7.05426 -6.64414,-7.05426 -4.34739,0 -6.64412,2.62484 -6.64412,7.05426 v 15.42093 c 0,4.42943 2.29673,7.05426 6.64412,7.05426 z m 9.35099,-0.41013 h 4.51145 v -28.70919 h -4.51145 z m 7.8745,0 h 4.01929 V 118.4049 h 0.0821 l 5.41372,20.95771 h 4.63449 v -28.70919 h -4.01929 v 17.1845 h -0.0821 l -4.38841,-17.1845 h -5.65981 z m 23.91056,0.41013 c 4.42942,0 6.72616,-2.62483 6.72616,-7.21831 v -9.39201 h -6.52109 v 4.10132 h 2.25572 v 5.61879 c 0,2.05066 -0.90228,2.7889 -2.33775,2.7889 -1.43545,0 -2.33775,-0.73824 -2.33775,-2.7889 v -15.70802 c 0,-2.05066 0.9023,-2.82991 2.33775,-2.82991 1.43547,0 2.33775,0.77925 2.33775,2.82991 v 2.74788 h 4.26537 v -2.46079 c 0,-4.59347 -2.29674,-7.21831 -6.72616,-7.21831 -4.42941,0 -6.72615,2.62484 -6.72615,7.21831 v 15.09283 c 0,4.59348 2.29674,7.21831 6.72615,7.21831 z m 16.32318,-0.41013 h 3.56814 l 0.86128,-8.20263 h 2.91193 l -0.86127,8.20263 h 3.56813 l 0.86128,-8.20263 h 2.09167 l 0.32811,-3.19902 h -2.09167 l 0.77925,-7.5054 h 2.09167 l 0.3281,-3.19903 h -2.09167 l 0.69722,-6.60311 h -3.56813 l -0.69723,6.60311 h -2.91193 l 0.69722,-6.60311 h -3.56814 l -0.69722,6.60311 h -2.05067 l -0.32809,3.19903 h 2.05065 l -0.77925,7.5054 h -2.00964 l -0.32811,3.19902 h 2.00964 z m 4.75753,-11.40165 0.77924,-7.5054 h 2.91194 l -0.77926,7.5054 z m 12.01679,11.40165 h 11.93482 v -4.10132 h -7.42338 v -24.60787 h -4.51144 z m 14.10852,0 h 4.51144 v -28.70919 h -4.51144 z m 7.87449,0 h 4.0193 V 118.4049 h 0.0821 l 5.41373,20.95771 h 4.63448 v -28.70919 h -4.01928 v 17.1845 h -0.0821 l -4.3884,-17.1845 h -5.65982 z m 24.07462,0.41013 c 4.42942,0 6.72616,-2.62483 6.72616,-7.21831 v -21.90101 h -4.3474 v 22.22911 c 0,2.05066 -0.86126,2.7889 -2.29673,2.7889 -1.43546,0 -2.29674,-0.73824 -2.29674,-2.7889 v -22.22911 h -4.51144 v 21.90101 c 0,4.59348 2.29674,7.21831 6.72615,7.21831 z m 8.65365,-0.41013 h 4.26536 l 3.36308,-10.0072 h 0.0821 l 3.28104,10.0072 H 400 l -5.20867,-14.6827 4.96259,-14.02649 h -4.26537 l -3.117,9.26897 h -0.0821 l -3.03497,-9.26897 H 384.497 l 4.96259,14.02649 z M 1.1483672,102.45079 h 3.5681429 l 0.861275,-8.20262 h 2.911932 l -0.861275,8.20262 h 3.5681419 l 0.861276,-8.20262 h 2.09167 l 0.328104,-3.199025 h -2.091669 l 0.77925,-7.505403 h 2.091669 l 0.328105,-3.199024 h -2.09167 l 0.697224,-6.603114 H 10.6224 l -0.6972229,6.603114 h -2.911933 l 0.697225,-6.603114 h -3.568144 l -0.697223,6.603114 H 1.3944462 l -0.3281047,3.199024 h 2.0506566 l -0.77925,7.505403 H 0.3281046 L 0,94.24817 h 2.0096431 z m 4.7575229,-11.401645 0.77925,-7.505403 h 2.911932 l -0.779249,7.505403 z M 17.922686,102.45079 h 11.93482 V 98.34948 H 22.43413 V 73.741604 h -4.511444 z m 14.10851,0 H 36.54264 V 73.741604 h -4.511444 z m 7.874497,0 H 43.92498 V 81.493085 h 0.08203 l 5.413733,20.957705 h 4.634481 V 73.741604 h -4.019287 v 17.184502 h -0.08203 L 45.565506,73.741604 h -5.659813 z m 24.074631,0.41014 c 4.429418,0 6.72615,-2.62484 6.72615,-7.21831 V 73.741604 H 66.359085 V 95.97072 c 0,2.05066 -0.861275,2.78889 -2.296735,2.78889 -1.435459,0 -2.296736,-0.73823 -2.296736,-2.78889 V 73.741604 H 57.25417 V 95.64262 c 0,4.59347 2.296736,7.21831 6.726154,7.21831 z m 8.653653,-0.41014 h 4.265372 l 3.363076,-10.007198 h 0.08206 l 3.281056,10.007198 h 4.75752 l -5.208669,-14.682696 4.962589,-14.02649 h -4.265362 l -3.116997,9.268967 h -0.08206 l -3.034967,-9.268967 h -4.75753 l 4.962589,14.02649 z m 24.566781,0 h 3.568152 l 0.86128,-8.20262 h 2.91192 l -0.86127,8.20262 h 3.56814 l 0.86128,-8.20262 h 2.09167 l 0.3281,-3.199025 h -2.09166 l 0.77924,-7.505403 h 2.09168 l 0.32809,-3.199024 h -2.09166 l 0.69722,-6.603114 h -3.56814 l -0.69722,6.603114 h -2.91194 l 0.69723,-6.603114 h -3.56815 l -0.697222,6.603114 h -2.05066 l -0.3281,3.199024 h 2.05066 l -0.77925,7.505403 h -2.00964 l -0.32811,3.199025 h 2.00964 z m 4.757532,-11.401645 0.77925,-7.505403 h 2.91193 l -0.77925,7.505403 z m 12.0168,11.401645 h 4.51144 v -12.509 h 5.82386 v -4.101313 h -5.82386 v -7.99756 h 7.42338 v -4.101313 h -11.93482 z m 14.10851,0 h 11.93482 v -4.10131 h -7.42338 V 73.741604 h -4.51144 z m 14.1085,0 h 4.51145 V 73.741604 h -4.51145 z m 14.27255,0.41014 c 4.42942,0 6.72615,-2.62484 6.72615,-7.21831 v -9.392011 h -6.52108 v 4.101312 h 2.25572 v 5.618799 c 0,2.05066 -0.90229,2.78889 -2.33775,2.78889 -1.43546,0 -2.33775,-0.73823 -2.33775,-2.78889 V 80.262692 c 0,-2.050657 0.90229,-2.829906 2.33775,-2.829906 1.43546,0 2.33775,0.779249 2.33775,2.829906 v 2.747879 h 4.26536 v -2.460788 c 0,-4.593469 -2.29673,-7.21831 -6.72615,-7.21831 -4.42942,0 -6.72615,2.624841 -6.72615,7.21831 V 95.64262 c 0,4.59347 2.29673,7.21831 6.72615,7.21831 z m 9.63804,-0.41014 h 4.51144 V 89.531659 h 4.83955 v 12.919131 h 4.51144 V 73.741604 h -4.51144 v 11.688742 h -4.83955 V 73.741604 h -4.51144 z m 20.75257,0 h 4.51145 V 77.842917 h 4.71651 v -4.101313 h -13.94446 v 4.101313 h 4.7165 z m 17.26646,0.41014 c 4.42941,0 6.80817,-2.62484 6.80817,-7.30034 0,-3.568143 -1.18937,-5.864878 -4.96259,-9.186942 -2.95294,-2.583827 -3.89624,-4.101313 -3.89624,-6.192982 0,-1.968631 0.82026,-2.74788 2.25572,-2.74788 1.43546,0 2.25572,0.779249 2.25572,2.829906 v 1.476472 h 4.26537 v -1.189381 c 0,-4.593469 -2.1737,-7.21831 -6.5621,-7.21831 -4.3884,0 -6.72615,2.624841 -6.72615,7.136285 0,3.28105 1.23039,5.618798 5.0036,8.940862 2.95294,2.583827 3.85523,4.10131 3.85523,6.48007 0,2.13269 -0.90229,2.87092 -2.33775,2.87092 -1.43545,0 -2.33775,-0.73823 -2.33775,-2.78889 v -1.96863 h -4.26536 v 1.64053 c 0,4.59347 2.21471,7.21831 6.64413,7.21831 z m 9.392,-0.41014 h 4.51145 V 73.741604 h -4.51145 z m 7.87449,0 h 3.93726 V 80.713837 h 0.0821 l 3.28105,21.736953 h 3.77321 l 3.28105,-21.736953 h 0.0821 v 21.736953 h 4.26536 V 73.741604 h -6.43906 l -2.87092,20.547576 h -0.0821 L 227.8273,73.741604 h -6.43906 z m 28.75013,0 h 3.56814 l 0.86128,-8.20262 h 2.91194 l -0.86128,8.20262 h 3.56814 l 0.86127,-8.20262 h 2.09167 l 0.32811,-3.199025 h -2.09167 l 0.77925,-7.505403 h 2.09167 l 0.32811,-3.199024 h -2.09167 l 0.69721,-6.603114 h -3.56813 l -0.69723,6.603114 h -2.91193 l 0.69722,-6.603114 h -3.56814 l -0.69722,6.603114 h -2.05066 l -0.3281,3.199024 h 2.05065 l -0.77925,7.505403 h -2.00964 l -0.32811,3.199025 h 2.00964 z m 4.75753,-11.401645 0.77924,-7.505403 h 2.91193 l -0.77924,7.505403 z m 17.88165,11.811785 c 4.42941,0 6.80818,-2.62484 6.80818,-7.30034 0,-3.568143 -1.18938,-5.864878 -4.96258,-9.186942 -2.95295,-2.583827 -3.89626,-4.101313 -3.89626,-6.192982 0,-1.968631 0.82027,-2.74788 2.25572,-2.74788 1.43547,0 2.25573,0.779249 2.25573,2.829906 v 1.476472 h 4.26536 v -1.189381 c 0,-4.593469 -2.1737,-7.21831 -6.5621,-7.21831 -4.3884,0 -6.72615,2.624841 -6.72615,7.136285 0,3.28105 1.2304,5.618798 5.0036,8.940862 2.95295,2.583827 3.85523,4.10131 3.85523,6.48007 0,2.13269 -0.90228,2.87092 -2.33775,2.87092 -1.43545,0 -2.33774,-0.73823 -2.33774,-2.78889 v -1.96863 h -4.26537 v 1.64053 c 0,4.59347 2.21471,7.21831 6.64413,7.21831 z m 9.39202,-0.41014 h 4.51145 V 73.741604 h -4.51145 z m 7.87448,0 h 3.93725 V 80.713837 h 0.0821 l 3.28105,21.736953 h 3.77321 l 3.28105,-21.736953 h 0.0821 v 21.736953 h 4.26536 V 73.741604 H 302.307 l -2.87092,20.547576 h -0.0821 L 296.48305,73.741604 H 290.044 Z m 22.06499,0 h 4.51144 V 90.146856 h 1.5585 c 2.05066,0 2.82991,0.861276 2.82991,3.527134 v 5.24968 c 0,2.33775 0.16405,2.78888 0.41013,3.52712 h 4.59347 c -0.45115,-1.06633 -0.49216,-2.09166 -0.49216,-3.48611 v -5.04462 c 0,-3.240033 -0.73823,-5.372716 -2.99395,-6.069939 v -0.08203 c 2.00964,-0.820262 2.95294,-2.706865 2.95294,-5.659811 v -1.763565 c 0,-4.429418 -2.00965,-6.603114 -6.68514,-6.603114 h -6.68514 z m 4.51144,-16.405247 v -8.202626 h 2.05066 c 1.59951,0 2.29673,0.902289 2.29673,2.952945 v 2.214709 c 0,2.296736 -1.02532,3.034972 -2.70686,3.034972 z m 10.82746,16.405247 h 4.18335 l 0.82026,-5.61879 h 5.12664 V 96.75 l 0.82026,5.70082 h 4.51145 l -4.6755,-28.709191 h -6.11095 z m 5.53678,-9.51504 1.96863,-14.190544 h 0.0821 l 2.00964,14.190544 z m 18.37381,9.92518 c 4.34739,0 6.64413,-2.62484 6.64413,-7.05426 v -4.060301 h -4.26537 v 4.388401 c 0,1.88661 -0.90229,2.62484 -2.25573,2.62484 -1.35343,0 -2.25572,-0.73823 -2.25572,-2.62484 V 80.098639 c 0,-1.886604 0.90229,-2.665853 2.25572,-2.665853 1.35344,0 2.25573,0.779249 2.25573,2.665853 v 3.322064 h 4.26537 v -3.034972 c 0,-4.429417 -2.29674,-7.054258 -6.64413,-7.054258 -4.3474,0 -6.64413,2.624841 -6.64413,7.054258 V 95.80667 c 0,4.42942 2.29673,7.05426 6.64413,7.05426 z m 9.35097,-0.41014 h 4.51144 V 73.741604 h -4.51144 z m 7.87449,0 h 4.0193 V 81.493085 h 0.0821 l 5.41373,20.957705 h 4.63448 V 73.741604 h -4.01928 v 17.184502 h -0.0821 l -4.38841,-17.184502 h -5.65982 z m 23.9106,0.41014 c 4.42942,0 6.72616,-2.62484 6.72616,-7.21831 v -9.392011 h -6.52109 v 4.101312 h 2.25572 v 5.618799 c 0,2.05066 -0.90229,2.78889 -2.33775,2.78889 -1.43546,0 -2.33775,-0.73823 -2.33775,-2.78889 V 80.262692 c 0,-2.050657 0.90229,-2.829906 2.33775,-2.829906 1.43546,0 2.33775,0.779249 2.33775,2.829906 v 2.747879 h 4.26537 v -2.460788 c 0,-4.593469 -2.29674,-7.21831 -6.72616,-7.21831 -4.42942,0 -6.72615,2.624841 -6.72615,7.21831 V 95.64262 c 0,4.59347 2.29673,7.21831 6.72615,7.21831 z" />
</svg>
