<?xml version="1.0" encoding="UTF-8" standalone="no"?>
<svg
   width="410.85187"
   height="38.264961"
   viewBox="0 0 410.85187 38.26496"
   version="1.1"
   id="svg1"
   xmlns="http://www.w3.org/2000/svg"
   xmlns:svg="http://www.w3.org/2000/svg">
  <path
     id="hashtag"
     style="fill:#ff0000"
     d="M 1.157333,29.34664 H 4.75333 l 0.867999,-8.26666 h 2.934665 l -0.868,8.26666 h 3.595998 l 0.867999,-8.26666 h 2.107998 l 0.330667,-3.22399 h -2.107999 l 0.785333,-7.564 h 2.107998 l 0.330667,-3.224 H 13.598657 L 14.301323,0.41333 H 10.705325 L 10.002659,7.06799 H 7.067995 L 7.770661,0.41333 H 4.174664 L 3.471998,7.06799 H 1.405333 l -0.330667,3.224 h 2.066665 l -0.785333,7.564 H 0.330667 L 0,21.07998 h 2.025332 z m 4.794663,-11.49065 0.785332,-7.564 h 2.934665 l -0.785333,7.564 z M 18.062601,29.34664 H 30.090592 V 25.21331 H 22.609264 V 0.41333 h -4.546663 z m 14.218649,0 h 4.546663 V 0.41333 H 32.28125 Z m 7.93597,0 h 4.050664 V 8.22533 h 0.08267 l 5.455996,21.12131 h 4.670663 V 0.41333 H 50.42655 V 17.73199 H 50.34388 L 45.921217,0.41333 h -5.703996 z m 24.262571,0.41334 c 4.463996,0 6.778666,-2.64533 6.778666,-7.27466 V 0.41333 h -4.381335 v 22.40265 c 0,2.06667 -0.867999,2.81067 -2.314664,2.81067 -1.446666,0 -2.314665,-0.744 -2.314665,-2.81067 V 0.41333 H 57.70113 v 22.07199 c 0,4.62933 2.314664,7.27466 6.778661,7.27466 z m 8.721216,-0.41334 h 4.29866 l 3.38933,-10.08532 h 0.0827 l 3.30666,10.08532 h 4.79466 l -5.24933,-14.79732 5.00133,-14.13599 h -4.29866 l -3.14133,9.34133 h -0.0827 l -3.05866,-9.34133 h -4.79466 l 5.00133,14.13599 z m 24.75856,0 h 3.596003 l 0.868,-8.26666 h 2.93467 l -0.868,8.26666 h 3.59599 l 0.868,-8.26666 h 2.108 l 0.33067,-3.22399 h -2.108 l 0.78533,-7.564 h 2.108 l 0.33067,-3.224 h -2.108 l 0.70266,-6.65466 h -3.59599 l -0.70267,6.65466 h -2.93466 l 0.70266,-6.65466 h -3.59599 l -0.70267,6.65466 h -2.066673 l -0.33066,3.224 h 2.06666 l -0.78533,7.564 h -2.02533 l -0.33067,3.22399 h 2.02533 z m 4.794673,-11.49065 0.78533,-7.564 h 2.93466 l -0.78533,7.564 z m 12.1106,11.49065 h 4.54666 V 16.73999 h 5.86933 v -4.13333 h -5.86933 v -8.06 h 7.48133 V 0.41333 h -12.02799 z m 14.21865,0 h 12.02799 v -4.13333 h -7.48133 V 0.41333 h -4.54666 z m 14.21864,0 h 4.54667 V 0.41333 h -4.54667 z m 14.38397,0.41334 c 4.464,0 6.77867,-2.64533 6.77867,-7.27466 v -9.46533 h -6.572 v 4.13333 h 2.27333 v 5.66266 c 0,2.06667 -0.90933,2.81067 -2.356,2.81067 -1.44666,0 -2.35599,-0.744 -2.35599,-2.81067 V 6.98533 c 0,-2.06667 0.90933,-2.852 2.35599,-2.852 1.44667,0 2.356,0.78533 2.356,2.852 v 2.76933 h 4.29867 v -2.48 C 164.46477,2.64533 162.1501,0 157.6861,0 c -4.46399,0 -6.77866,2.64533 -6.77866,7.27466 v 15.21066 c 0,4.62933 2.31467,7.27466 6.77866,7.27466 z m 9.71328,-0.41334 h 4.54666 V 16.32665 h 4.87733 v 13.01999 h 4.54666 V 0.41333 h -4.54666 v 11.77999 h -4.87733 V 0.41333 h -4.54666 z m 20.91459,0 h 4.54666 V 4.54666 h 4.75333 V 0.41333 h -14.05332 v 4.13333 h 4.75333 z m 17.40124,0.41334 c 4.46399,0 6.86133,-2.64533 6.86133,-7.35733 0,-3.596 -1.19867,-5.91066 -5.00133,-9.25866 -2.976,-2.604 -3.92667,-4.13333 -3.92667,-6.24133 0,-1.984 0.82667,-2.76933 2.27333,-2.76933 1.44667,0 2.27334,0.78533 2.27334,2.852 v 1.488 h 4.29866 V 7.27466 C 212.49387,2.64533 210.3032,0 205.88054,0 c -4.42266,0 -6.77866,2.64533 -6.77866,7.19199 0,3.30667 1.24,5.66267 5.04266,9.01066 2.976,2.604 3.88533,4.13333 3.88533,6.53067 0,2.14933 -0.90933,2.89333 -2.356,2.89333 -1.44666,0 -2.35599,-0.744 -2.35599,-2.81067 v -1.984 h -4.29867 v 1.65334 c 0,4.62933 2.232,7.27466 6.696,7.27466 z m 9.46533,-0.41334 h 4.54666 V 0.41333 h -4.54666 z m 7.93596,0 h 3.96799 V 7.43999 h 0.0827 l 3.30666,21.90665 h 3.80267 l 3.30666,-21.90665 h 0.0827 v 21.90665 h 4.29866 V 0.41333 h -6.48933 l -2.89333,20.70799 h -0.0827 L 229.60584,0.41333 h -6.48932 z m 28.97457,0 h 3.59599 l 0.868,-8.26666 h 2.93467 l -0.868,8.26666 h 3.596 l 0.868,-8.26666 h 2.10799 l 0.33067,-3.22399 h -2.108 l 0.78533,-7.564 h 2.108 l 0.33067,-3.224 h -2.108 l 0.70267,-6.65466 h -3.596 l -0.70267,6.65466 h -2.93466 l 0.70267,-6.65466 h -3.596 l -0.70267,6.65466 h -2.06666 l -0.33067,3.224 h 2.06667 l -0.78534,7.564 h -2.02533 l -0.33067,3.22399 h 2.02534 z m 4.79466,-11.49065 0.78533,-7.564 h 2.93467 l -0.78534,7.564 z m 18.02125,11.90399 c 4.464,0 6.86133,-2.64533 6.86133,-7.35733 0,-3.596 -1.19867,-5.91066 -5.00133,-9.25866 -2.976,-2.604 -3.92666,-4.13333 -3.92666,-6.24133 0,-1.984 0.82666,-2.76933 2.27333,-2.76933 1.44666,0 2.27333,0.78533 2.27333,2.852 v 1.488 h 4.29866 V 7.27466 C 281.68564,2.64533 279.49498,0 275.07231,0 c -4.42266,0 -6.77866,2.64533 -6.77866,7.19199 0,3.30667 1.24,5.66267 5.04266,9.01066 2.976,2.604 3.88534,4.13333 3.88534,6.53067 0,2.14933 -0.90934,2.89333 -2.356,2.89333 -1.44667,0 -2.356,-0.744 -2.356,-2.81067 v -1.984 h -4.29866 v 1.65334 c 0,4.62933 2.23199,7.27466 6.69599,7.27466 z m 9.46535,-0.41334 h 4.54666 V 0.41333 h -4.54666 z m 7.93594,0 h 3.968 V 7.43999 h 0.0827 l 3.30667,21.90665 h 3.80266 l 3.30666,-21.90665 h 0.0827 v 21.90665 h 4.29866 V 0.41333 H 304.667 l -2.89334,20.70799 h -0.0827 L 298.79763,0.41333 h -6.48933 z m 22.23724,0 h 4.54667 V 16.94665 h 1.57066 c 2.06667,0 2.852,0.868 2.852,3.55467 v 5.29066 c 0,2.356 0.16533,2.81066 0.41333,3.55466 h 4.62933 c -0.45466,-1.07466 -0.496,-2.10799 -0.496,-3.51333 v -5.08399 c 0,-3.26533 -0.744,-5.41467 -3.01733,-6.11733 v -0.0827 c 2.02533,-0.82666 2.976,-2.728 2.976,-5.70399 V 7.06796 c 0,-4.46399 -2.02533,-6.65466 -6.73733,-6.65466 h -6.73733 z m 4.54667,-16.53332 V 4.54666 h 2.06666 c 1.612,0 2.31467,0.90934 2.31467,2.976 v 2.232 c 0,2.31466 -1.03334,3.05866 -2.728,3.05866 z m 10.91198,16.53332 h 4.216 l 0.82667,-5.66266 h 5.16666 v -0.0827 l 0.82667,5.74533 h 4.54666 l -4.712,-28.93331 h -6.15866 z m 5.58,-9.58932 1.984,-14.30132 h 0.0827 l 2.02533,14.30132 z m 18.51725,10.00266 c 4.38133,0 6.69599,-2.64533 6.69599,-7.10933 v -4.092 h -4.29866 v 4.42267 c 0,1.90133 -0.90934,2.64533 -2.27334,2.64533 -1.36399,0 -2.27333,-0.744 -2.27333,-2.64533 V 6.81999 c 0,-1.90133 0.90934,-2.68666 2.27333,-2.68666 1.364,0 2.27334,0.78533 2.27334,2.68666 v 3.348 h 4.29866 V 7.10933 C 360.7974,2.64533 358.48274,0 354.10141,0 c -4.38133,0 -6.696,2.64533 -6.696,7.10933 v 15.54132 c 0,4.464 2.31467,7.10933 6.696,7.10933 z m 9.42396,-0.41334 h 4.54666 V 0.41333 h -4.54666 z m 7.93597,0 h 4.05067 V 8.22533 h 0.0827 l 5.45599,21.12131 h 4.67066 V 0.41333 H 381.6707 V 17.73199 H 381.588 L 377.16534,0.41333 h -5.704 z m 24.09726,0.41334 c 4.464,0 6.77866,-2.64533 6.77866,-7.27466 v -9.46533 h -6.57199 v 4.13333 h 2.27333 v 5.66266 c 0,2.06667 -0.90933,2.81067 -2.356,2.81067 -1.44666,0 -2.356,-0.744 -2.356,-2.81067 V 6.98533 c 0,-2.06667 0.90934,-2.852 2.356,-2.852 1.44667,0 2.356,0.78533 2.356,2.852 v 2.76933 h 4.29866 v -2.48 C 402.33726,2.64533 400.0226,0 395.5586,0 c -4.464,0 -6.77866,2.64533 -6.77866,7.27466 v 15.21066 c 0,4.62933 2.31466,7.27466 6.77866,7.27466 z" />
</svg>
