<?xml version="1.0" encoding="utf-8" standalone="no"?>
<svg
   width="1024"
   height="415"
   viewBox="0 0 1024 415"
   version="1.1"
   id="pitcrew-logo"
   xmlns="http://www.w3.org/2000/svg"
   xmlns:svg="http://www.w3.org/2000/svg">
  <path
    id="path1"
    style="fill:#f2f2f2"
    d="m 288.32402,131.90025 a 3.9203792,3.9203792 0 0 0 -3.84999,3.19374 l -4.33559,22.93807 a 3.9203792,3.9203792 0 0 0 3.84999,4.64621 h 25.99615 a 3.9203792,3.9203792 0 0 0 3.84999,-3.19374 l 4.33561,-22.93804 a 3.9203792,3.9203792 0 0 0 -3.84999,-4.64624 z m 198.9131,0 c -43.11417,0 -75.73478,30.58482 -84.10033,74.8735 -4.18277,22.14431 -1.19745,41.2533 8.74996,54.92797 9.94745,13.67462 26.71214,21.39804 48.26922,21.39804 32.93293,0 59.78491,-17.80192 74.22164,-45.7011 a 3.9203792,3.9203792 0 0 0 -3.48249,-5.72248 h -29.19867 a 3.9203792,3.9203792 0 0 0 -3.21559,1.67563 c -7.84928,11.2405 -18.72829,17.43868 -33.70053,17.43868 -12.16839,0 -19.45701,-3.97171 -23.73429,-10.97683 -4.27729,-7.00512 -5.4745,-17.82182 -2.87437,-31.5874 2.60015,-13.76572 7.86652,-24.81371 15.29494,-32.33113 7.42846,-7.51744 16.97801,-11.68996 29.14616,-11.68999 14.96925,0 22.51841,5.65699 25.96115,16.39307 a 3.9203792,3.9203792 0 0 0 3.73188,2.72125 h 29.20303 a 3.9203792,3.9203792 0 0 0 3.88061,-4.46249 c -1.97931,-14.16963 -8.12696,-26.08777 -18.09932,-34.30864 -9.9723,-8.22082 -23.58669,-12.64805 -40.053,-12.64808 z m -325.77018,2.86563 a 3.9203792,3.9203792 0 0 0 -3.84998,3.19373 l -25.99617,137.62392 a 3.9203792,3.9203792 0 0 0 3.84999,4.64624 h 25.99616 a 3.9203792,3.9203792 0 0 0 3.84999,-3.19373 l 8.21186,-43.44361 h 28.86177 c 2.68488,0 8.03076,-0.17113 12.19746,-0.80937 26.7509,-4.06001 42.67414,-23.55817 47.26735,-47.87548 2.29468,-12.14842 1.57572,-23.32595 -3.35998,-32.23052 -4.93389,-8.90124 -14.1359,-15.04016 -26.96744,-17.09307 -3.98097,-0.6479 -9.08876,-0.81811 -11.95244,-0.81811 z m 186.16878,5.73558 a 3.9203792,3.9203792 0 0 0 -3.84999,3.19376 l -4.81686,25.47992 h -14.33246 a 3.9203792,3.9203792 0 0 0 -3.84999,3.19374 l -3.78873,20.06805 a 3.9203792,3.9203792 0 0 0 3.84997,4.64624 h 12.85373 l -6.55812,34.72865 c -2.31072,12.2334 -5.37552,22.26609 -1.47875,33.02676 a 3.9203792,3.9203792 0 0 0 0.004,0.0175 c 3.3275,9.04022 11.64251,14.08401 21.25804,16.06057 9.61555,1.97654 20.91558,1.3159 32.31364,-0.74811 a 3.9203792,3.9203792 0 0 0 3.15,-3.1325 l 4.08186,-21.59931 a 3.9203792,3.9203792 0 0 0 -4.38373,-4.61122 c -6.16603,0.84465 -11.8241,1.29707 -15.85056,0.78749 -4.02653,-0.50957 -5.84749,-1.54934 -6.77686,-3.64875 a 3.9203792,3.9203792 0 0 0 -0.0218,-0.0525 c -0.32296,-0.70041 -0.54824,-2.70945 -0.20125,-5.5825 0.34689,-2.87304 1.12067,-6.51865 1.89001,-10.59185 l 6.54933,-34.65425 h 26.56929 a 3.9203792,3.9203792 0 0 0 3.84999,-3.19375 l 3.78875,-20.06805 a 3.9203792,3.9203792 0 0 0 -3.84999,-4.64623 H 372.9447 l 4.53686,-24.02744 a 3.9203792,3.9203792 0 0 0 -3.84999,-4.64624 z m 338.12952,25.80367 c -32.46164,0 -59.88466,23.59436 -66.57414,59.00983 -3.09068,16.36263 0.0476,30.95921 8.55746,41.38737 8.51027,10.42809 22.18548,16.39746 38.96357,16.39743 21.31157,0 42.74166,-11.60713 54.86669,-31.71426 a 3.9203792,3.9203792 0 0 0 -3.35558,-5.94561 h -31.42113 a 3.9203792,3.9203792 0 0 0 -2.37564,0.80498 c -4.04961,3.08926 -8.89176,4.73812 -14.65182,4.73812 -6.26006,0 -10.08474,-1.69368 -12.53432,-4.57186 -1.9211,-2.25729 -2.872,-5.95216 -3.12813,-10.52623 h 68.2585 a 3.9203792,3.9203792 0 0 0 3.78003,-2.88749 c 5.29445,-19.38876 4.42611,-35.94173 -2.68624,-47.94984 -7.11243,-12.00808 -20.47578,-18.74241 -37.69925,-18.74244 z m -499.64089,0.57752 h 27.71992 c 2.49142,0 5.71045,0.2526 7.48124,0.78748 a 3.9203792,3.9203792 0 0 0 0.0481,0.0134 c 3.85571,1.10866 5.36836,3.06916 6.31747,5.89309 0.94913,2.82394 0.8957,6.59591 0.27563,9.87874 -1.24008,6.56519 -4.97194,14.81353 -14.14872,17.19369 a 3.9203792,3.9203792 0 0 0 -0.0394,0.009 c -2.1928,0.59446 -5.45803,0.81814 -7.94935,0.81814 h -26.23672 z m 427.98303,1.9381 c -7.62804,0.17383 -15.41056,2.01235 -22.27309,5.78373 -1.94184,1.01719 -3.59114,2.38969 -5.30248,3.68813 l 0.84437,-4.47124 a 3.9203792,3.9203792 0 0 0 -3.84999,-4.64623 h -22.93367 a 3.9203792,3.9203792 0 0 0 -3.84999,3.19374 l -19.49492,103.21465 a 3.9203792,3.9203792 0 0 0 3.84999,4.64624 h 26.18427 a 3.9203792,3.9203792 0 0 0 3.84999,-3.19373 l 9.96183,-52.75358 c 2.04202,-10.81076 7.62958,-17.86498 16.44121,-21.58181 a 3.9203792,3.9203792 0 0 0 0.026,-0.0134 c 5.71688,-2.46187 13.80792,-2.8678 17.84556,-1.58375 a 3.9203792,3.9203792 0 0 0 5.03996,-3.00999 l 4.58498,-24.27241 a 3.9203792,3.9203792 0 0 0 -3.36436,-4.6156 c -2.47944,-0.3108 -5.00867,-0.44319 -7.55997,-0.38502 z m 126.53763,0.16189 a 3.9203792,3.9203792 0 0 0 -3.92432,4.3706 l 12.00934,103.40717 a 3.9203792,3.9203792 0 0 0 3.89371,3.46936 h 19.87999 a 3.9203792,3.9203792 0 0 0 3.47374,-2.09999 l 29.66238,-56.58607 8.09371,55.33483 a 3.9203792,3.9203792 0 0 0 3.88064,3.35123 h 19.87991 a 3.9203792,3.9203792 0 0 0 3.51312,-2.18312 L 892.04141,174.832 a 3.9203792,3.9203792 0 0 0 -3.5131,-5.65686 h -25.42306 a 3.9203792,3.9203792 0 0 0 -3.5175,2.1875 l -24.52174,49.71296 -5.81876,-48.4486 a 3.9203792,3.9203792 0 0 0 -3.89371,-3.45186 h -21.59935 a 3.9203792,3.9203792 0 0 0 -3.50874,2.17436 l -24.75365,49.7217 -5.59561,-48.42671 a 3.9203792,3.9203792 0 0 0 -3.8631,-3.46935 z m -459.36471,0.1925 a 3.9203792,3.9203792 0 0 0 -3.84999,3.19374 l -19.49492,103.21465 a 3.9203792,3.9203792 0 0 0 3.84999,4.64624 h 25.99616 a 3.9203792,3.9203792 0 0 0 3.84996,-3.19373 l 19.49495,-103.21467 a 3.9203792,3.9203792 0 0 0 -3.84999,-4.64623 z m 401.37434,27.52741 c 5.64191,0 8.74107,1.24338 10.58304,3.35998 1.40683,1.6165 2.14514,4.66571 2.36256,8.67559 h -34.90809 c 4.72987,-8.09529 11.45814,-12.03557 21.96249,-12.03557 z" />
</svg>
